<svg width="68" height="68" viewBox="0 0 68 68" fill="none" xmlns="http://www.w3.org/2000/svg">
<path d="M7.00369 5.72841C22.1811 5.68866 37.3586 5.64891 52.536 5.60916C54.502 5.60401 56.7974 5.33235 58.7138 5.79354C60.939 5.36717 62.2724 6.37874 62.714 8.82826C64.3149 10.3466 64.8854 12.1504 64.4255 14.2396C64.7716 17.5789 64.3888 21.1646 64.3711 24.5246C64.3507 28.3815 64.3302 32.2383 64.3098 36.0952C64.2797 41.7814 66.027 47.5125 58.1175 49.2783C55.0016 49.9739 50.9227 49.2945 47.7184 49.3018C43.8187 49.3106 39.919 49.3194 36.0193 49.3282C29.0413 49.344 22.0313 49.5587 15.0586 49.2305C13.0223 49.1346 10.4697 49.3366 8.56987 48.608C6.56486 48.7969 5.39675 47.7621 5.06554 45.5034C3.7697 44.3568 3.22892 43.0095 3.44319 41.4615C2.86743 38.0073 3.4807 33.907 3.49802 30.4182C3.52003 25.9863 1.23051 6.32582 7.60285 5.5023C9.45462 5.26299 9.47847 2.3176 7.60285 2.55999C-0.243342 3.57398 0.646981 12.0394 0.616648 18.1478C0.588213 23.874 0.559779 29.6002 0.531344 35.3264C0.51454 38.7105 -0.384876 43.8692 1.06523 47.1052C4.1369 53.9596 15.9497 52.2724 22.0047 52.2999C34.2831 52.3556 46.9234 53.0381 59.1652 52.192C67.2699 51.6318 67.1945 46.983 67.2317 39.952C67.2635 33.9525 67.2952 27.9529 67.327 21.9534C67.3495 17.6892 68.629 11.0144 66.6782 7.06557C63.3303 0.288685 52.0637 2.66809 46.0314 2.68389C33.0221 2.71796 20.0129 2.75203 7.00369 2.7861C5.11068 2.79106 5.10711 5.73338 7.00369 5.72841Z" fill="#233A41"/>
<path d="M2.31671 42.8329C23.2034 42.8838 44.0901 42.9346 64.9769 42.9854C66.8703 42.99 66.873 40.0477 64.9769 40.0431C44.0901 39.9923 23.2034 39.9415 2.31671 39.8906C0.423286 39.886 0.420548 42.8283 2.31671 42.8329Z" fill="#233A41"/>
<path d="M40.8469 20.5119C41.9962 20.9648 42.847 21.8413 43.835 22.5479C44.817 23.2502 45.8799 23.8117 46.9476 24.3704C46.9476 23.5235 46.9476 22.6766 46.9476 21.8298C44.5337 23.377 42.1198 24.9242 39.7059 26.4714C38.1167 27.4901 39.5905 30.0379 41.191 29.012C43.6049 27.4648 46.0188 25.9176 48.4327 24.3704C49.3178 23.8031 49.4545 22.3644 48.4327 21.8298C46.0773 20.5974 44.089 18.644 41.6291 17.6747C39.8669 16.9804 39.1025 19.8246 40.8469 20.5119Z" fill="#233A41"/>
<path d="M38.466 13.6938C36.5462 16.6031 35.785 19.7393 34.3293 22.8486C32.7686 26.1822 30.4492 28.9871 27.6491 31.3534C26.2009 32.5772 28.2911 34.6495 29.7296 33.4339C32.4214 31.1592 34.7155 28.471 36.3659 25.3432C38.1287 22.0025 38.9021 18.368 41.0066 15.1789C42.0526 13.5939 39.5056 12.1185 38.466 13.6938Z" fill="#233A41"/>
<path d="M25.8114 17.399C24.3767 18.3667 22.9223 19.3118 21.5268 20.3358C20.5179 21.0761 18.8565 21.9756 19.0831 23.463C19.2805 24.7581 20.668 25.0875 21.7221 25.3837C22.6129 25.6339 23.025 26.0404 23.668 26.6753C24.1965 27.197 25.0047 27.465 25.4184 28.0802C26.4696 29.6433 29.0196 28.1723 27.959 26.5951C27.227 25.5067 26.096 24.8084 25.1493 23.9274C24.6793 23.49 24.1301 23.146 23.5447 22.8901C23.0248 22.6629 21.9794 22.6361 21.5683 22.2271C21.6944 22.7043 21.8205 23.1814 21.9466 23.6585C21.8083 23.8322 21.8629 23.802 22.1104 23.5677C22.4028 23.3269 22.7033 23.0965 23.0118 22.8763C23.4997 22.5181 23.9977 22.1736 24.4967 21.8311C25.4252 21.1938 26.3628 20.5694 27.2964 19.9396C28.8579 18.8863 27.387 16.3362 25.8114 17.399Z" fill="#233A41"/>
<path d="M32.0667 47.644C32.3573 47.644 32.6479 47.644 32.9385 47.644C34.8317 47.644 34.8348 44.7017 32.9385 44.7017C32.6479 44.7017 32.3573 44.7017 32.0667 44.7017C30.1734 44.7017 30.1703 47.644 32.0667 47.644Z" fill="#233A41"/>
<path d="M23.8647 64.6172C26.05 62.119 30.7418 62.9991 33.6943 62.9757C37.3898 62.9463 41.249 62.599 44.1664 65.3256C45.5488 66.6176 47.6339 64.5413 46.247 63.2451C42.6815 59.9129 38.3225 59.9961 33.6943 60.0334C29.7633 60.065 24.6711 59.2363 21.7842 62.5367C20.5423 63.9566 22.6152 66.0458 23.8647 64.6172Z" fill="#233A41"/>
<path d="M39.7494 51.9484C39.7494 54.9634 39.7494 57.9784 39.7494 60.9933C39.7494 62.8866 42.6917 62.8897 42.6917 60.9933C42.6917 57.9784 42.6917 54.9634 42.6917 51.9484C42.6917 50.0552 39.7494 50.0521 39.7494 51.9484Z" fill="#233A41"/>
<path d="M26.2754 51.5103C26.4659 54.6359 26.6564 57.7615 26.8469 60.8871C26.9615 62.7684 29.9046 62.7815 29.7892 60.8871C29.5987 57.7615 29.4082 54.6359 29.2177 51.5103C29.103 49.6291 26.1599 49.616 26.2754 51.5103Z" fill="#233A41"/>
</svg>
