<svg width="66" height="73" viewBox="0 0 66 73" fill="none" xmlns="http://www.w3.org/2000/svg">
<path d="M32.886 0C45.7359 0 56.1533 10.4175 56.1533 23.2665C56.1533 36.1164 45.7359 46.5338 32.886 46.5338C20.0361 46.5338 9.61862 36.1164 9.61862 23.2665C9.61862 10.4175 20.0361 0 32.886 0ZM31.3529 29.743C31.2865 27.4076 31.4526 25.691 33.0354 23.7953C34.6174 21.8969 37.7263 20.328 37.7263 17.6684C37.7263 15.104 35.467 13.2074 32.9725 13.2074C29.8758 13.2074 28.4835 15.4335 28.0456 18.2374L24.9455 17.858C25.5022 13.3 28.3043 10.7269 32.9201 10.7269C36.9799 10.7269 40.8265 13.0658 40.8265 17.4673C40.8265 21.792 37.201 22.9378 35.1715 25.6954C34.3124 26.8613 34.273 28.3507 34.2468 29.743H31.3529ZM30.8014 35.8061V32.3616H34.2468V35.8061H30.8014ZM27.9539 52.6153L32.886 59.0009L37.8181 52.6153H27.9539ZM42.3962 52.6153L34.3447 63.0398C33.6359 64.0003 32.192 64.0309 31.4526 63.0721L23.3757 52.6153H19.9557C10.8414 52.6153 3.63331 60.034 3.63331 69.1046H62.1386C62.1386 60.0331 54.9306 52.6153 45.8163 52.6153H42.3962ZM19.9557 48.9811H45.8163C56.7957 48.9811 65.7719 57.9573 65.7719 68.9368V70.9208C65.7719 71.9242 64.9591 72.7379 63.9557 72.7379H1.81622C0.812841 72.7379 0 71.9242 0 70.9208V68.9368C0 57.9573 8.97621 48.9811 19.9557 48.9811ZM32.886 3.63331C22.0428 3.63331 13.2528 12.4234 13.2528 23.2665C13.2528 34.1096 22.0428 42.8997 32.886 42.8997C43.7291 42.8997 52.5191 34.1096 52.5191 23.2665C52.5191 12.4234 43.7291 3.63331 32.886 3.63331Z" fill="#233A41"/>
</svg>
