<svg width="43" height="43" viewBox="0 0 43 43" fill="none" xmlns="http://www.w3.org/2000/svg">
<path fill-rule="evenodd" clip-rule="evenodd" d="M21.1765 42.3529C32.8719 42.3529 42.353 32.8719 42.353 21.1764C42.353 9.48103 32.8719 0 21.1765 0C9.48101 0 0 9.48103 0 21.1764C0 32.8719 9.48101 42.3529 21.1765 42.3529ZM27.7828 9.86489C28.1044 8.72264 26.9959 8.0472 25.9835 8.76843L11.8515 18.836C10.7536 19.6182 10.9263 21.1764 12.1109 21.1764H15.8323V21.1476H23.085L17.1754 23.2328L14.5702 32.4881C14.2486 33.6303 15.357 34.3057 16.3694 33.5845L30.5014 23.517C31.5993 22.7348 31.4265 21.1764 30.242 21.1764H24.5987L27.7828 9.86489Z" fill="#2FC980"/>
</svg>
